<?xml version="1.0" standalone="no"?>
<!DOCTYPE svg PUBLIC "-//W3C//DTD SVG 1.1//EN" "http://www.w3.org/Graphics/SVG/1.1/DTD/svg11.dtd">
<svg class="icon" viewBox="0 0 1024 1024" version="1.1" xmlns="http://www.w3.org/2000/svg" width="72" height="72" xmlns:xlink="http://www.w3.org/1999/xlink">
  <path d="M512 522.24c-3.723636 0-7.447273-0.930909-11.170909-1.861818l-406.807273-176.872727a28.644073 28.644073 0 0 1 0-52.13091l406.807273-176.872727c7.447273-2.792727 14.894545-2.792727 22.341818 0l406.807273 176.872727a28.644073 28.644073 0 0 1 0 52.13091l-406.807273 176.872727c-3.723636 0.930909-7.447273 1.861818-11.170909 1.861818z m-336.989091-204.8L512 463.592727l336.989091-146.152727L512 171.287273 175.010909 317.44z" fill="#13c2c2" class=""></path>
  <path d="M512 716.8c-3.723636 0-7.447273-0.930909-11.170909-1.861818l-406.807273-176.872727c-13.963636-6.516364-20.48-22.341818-14.894545-36.305455 6.516364-13.963636 22.341818-20.48 36.305454-14.894545L512 658.152727l395.636364-172.218182c13.963636-6.516364 30.72 0 36.305454 14.894546 6.516364 13.963636 0 30.72-14.894545 36.305454l-406.807273 176.872728c-2.792727 1.861818-6.516364 2.792727-10.24 2.792727z" fill="#fa541c" class=""></path>
  <path d="M512 911.36c-3.723636 0-7.447273-0.930909-11.170909-1.861818l-406.807273-176.872727c-13.963636-6.516364-20.48-22.341818-14.894545-36.305455 6.516364-13.963636 22.341818-20.48 36.305454-14.894545L512 852.712727l395.636364-172.218182c13.963636-6.516364 30.72 0 36.305454 14.894546 6.516364 13.963636 0 30.72-14.894545 36.305454l-406.807273 176.872728c-2.792727 1.861818-6.516364 2.792727-10.24 2.792727z" fill="#fa541c" class=""></path>
</svg>