<?xml version="1.0" standalone="no"?><!DOCTYPE svg PUBLIC "-//W3C//DTD SVG 1.1//EN" "http://www.w3.org/Graphics/SVG/1.1/DTD/svg11.dtd"><svg class="icon" width="64px" height="64.00px" viewBox="0 0 1024 1024" version="1.1" xmlns="http://www.w3.org/2000/svg"><path d="M921.96608 767.6416v177.5104a38.9632 38.9632 0 1 1-77.9264 0v-181.248l-39.2704 39.5776a38.656 38.656 0 0 1-55.04 0 39.68 39.68 0 0 1 0-55.6544l103.8336-105.0624a38.656 38.656 0 0 1 55.1424 0l103.8336 104.96a39.68 39.68 0 0 1 0 55.7056 38.656 38.656 0 0 1-55.04 0l-35.584-35.84z m-377.7024-254.7712h143.36a39.3728 39.3728 0 0 1 0 78.7456H506.01728a38.4 38.4 0 0 1-19.0464-5.12 39.424 39.424 0 0 1-20.48-34.7136v-212.992a38.9632 38.9632 0 1 1 77.9264 0v174.08zM1012.84608 512a38.9632 38.9632 0 1 1-77.9264 0 428.544 428.544 0 1 0-428.4416 433.2544 424.96 424.96 0 0 0 148.48-26.624 38.8096 38.8096 0 0 1 50.0224 23.3984 39.5264 39.5264 0 0 1-23.04 50.5344A500.6336 500.6336 0 0 1 506.47808 1024 509.2352 509.2352 0 0 1 0.00768 512 509.2352 509.2352 0 0 1 506.47808 0a509.184 509.184 0 0 1 506.368 512z"  /></svg>