<?xml version="1.0" standalone="no"?><!DOCTYPE svg PUBLIC "-//W3C//DTD SVG 1.1//EN" "http://www.w3.org/Graphics/SVG/1.1/DTD/svg11.dtd"><svg class="icon" width="64px" height="64.00px" viewBox="0 0 1024 1024" version="1.1" xmlns="http://www.w3.org/2000/svg"><path d="M534.072832 512.8704h140.8a39.424 39.424 0 0 1 0 78.7456H496.440832a39.5776 39.5776 0 0 1-38.8096-39.7824V338.7904a38.2464 38.2464 0 1 1 76.4416 0v174.08z m309.8112 342.1696v-177.408a38.2464 38.2464 0 1 1 76.4416 0v181.1456l38.4-39.5776a37.4784 37.4784 0 0 1 54.1184 0 40.2944 40.2944 0 0 1 0 55.7056l-101.9904 104.96a37.4784 37.4784 0 0 1-54.016 0l-101.888-104.96a40.2944 40.2944 0 0 1 0-55.7056 37.4784 37.4784 0 0 1 54.0672 0l34.9184 35.84z m141.9264-303.7696a38.8096 38.8096 0 0 1-38.2464-39.2704c0-239.2576-218.4704-433.2544-450.56-433.2544A426.9568 426.9568 0 0 0 76.498432 512 426.9568 426.9568 0 0 0 496.696832 945.2032a409.6 409.6 0 0 0 145.5104-26.624 37.888 37.888 0 0 1 49.0496 23.3984 39.7824 39.7824 0 0 1-22.528 50.5344A482.9696 482.9696 0 0 1 496.696832 1024 504.576 504.576 0 0 1 0.056832 512 504.576 504.576 0 0 1 496.696832 0C771.282432 0 1024.056832 229.2224 1024.056832 512a38.8096 38.8096 0 0 1-38.2464 39.424z"  /></svg>